# xmcd CD database file
#
# Track frame offsets:
#	182
#	27975
#	74925
#	88050
#	112575
#	137475
#	159500
#	182212
#
# Disc length: 2680 seconds
#
# Revision: 0
# Processed by: cddbd v1.5.2PL0 Copyright (c) Steve Scherf et al.
# Submitted via: CDex 1.51
#
DISCID=690a7608
DTITLE=RAMON DIAZ GROUP - PUES SI
DYEAR=1995
DGENRE=Jazz
TTITLE0=RECORRIDOS
TTITLE1=ECCLUSIASTICS
TTITLE2=PUES SI
TTITLE3=EVERYTHING HAPPEN TO ME
TTITLE4=ELIGEME
TTITLE5=CONTEMPLATION
TTITLE6=REGGAE HOP
TTITLE7=FREE QUE
EXTD=YEAR: 1995
EXTT0=
EXTT1=
EXTT2=
EXTT3=
EXTT4=
EXTT5=
EXTT6=
EXTT7=
PLAYORDER=
